<!DOCTYPE svg PUBLIC "-//W3C//DTD SVG 1.1//EN" "http://www.w3.org/Graphics/SVG/1.1/DTD/svg11.dtd">
<!-- Uploaded to: SVG Repo, www.svgrepo.com, Transformed by: SVG Repo Mixer Tools -->
<svg width="800px" height="800px" viewBox="0 0 48 48" xmlns="http://www.w3.org/2000/svg" fill="#" stroke="#">
<g id="SVGRepo_bgCarrier" stroke-width="0"/>
<g id="SVGRepo_tracerCarrier" stroke-linecap="round" stroke-linejoin="round"/>
<g id="SVGRepo_iconCarrier">
<defs>
<style>.a{fill:none;stroke:#ffffff;stroke-linecap:round;stroke-linejoin:round;}</style>
</defs>
<path class="a" d="M20.5,4.5h6.67a1,1,0,0,1,1,1v3H32.8a2,2,0,0,1,2,2v31a2,2,0,0,1-2,2H15.19a2,2,0,0,1-2-2v-31a2,2,0,0,1,2-2H19.5v-3A1,1,0,0,1,20.5,4.5Z"/>
<line class="a" x1="13.19" y1="36.5" x2="34.8" y2="36.5"/>
<line class="a" x1="19.5" y1="8.5" x2="28.17" y2="8.5"/>
</g>
</svg>